<?xml version="1.0" encoding="iso-8859-1"?>
<!-- Generator: Adobe Illustrator 19.0.0, SVG Export Plug-In . SVG Version: 6.00 Build 0)  -->
<svg version="1.1" id="Capa_1" xmlns="http://www.w3.org/2000/svg" xmlns:xlink="http://www.w3.org/1999/xlink" x="0px" y="0px"
	 viewBox="0 0 511.959 511.959" style="enable-background:new 0 0 511.959 511.959;" xml:space="preserve" fill="#fff">
<g>
	<g>
		<g>
			<rect x="79.979" y="140.1" width="32" height="32"/>
			<path id="myCircle" d="M483.852,248.227c-38.201-36.766-98.974-35.602-135.74,2.599c-34.376,35.718-35.903,91.735-3.524,129.273h-88.608v-160
				h-88.608c35.346-39.518,31.964-100.208-7.554-135.554C142.258,68.84,119.538,60.139,95.979,60.1
				C42.96,60.111-0.011,103.101,0,156.12c0.005,25.449,10.115,49.854,28.107,67.852l67.872,67.888l39.76-39.76h88.24v160h152.24
				l39.76,39.76l67.872-67.888C521.328,346.484,521.328,285.715,483.852,248.227z M141.241,201.334
				c-0.005,0.005-0.009,0.009-0.014,0.014l-45.248,45.264l-45.248-45.264c-24.997-24.99-25.003-65.512-0.014-90.51
				s65.512-25.003,90.51-0.014C166.225,135.814,166.231,176.337,141.241,201.334z M461.241,361.334
				c-0.005,0.005-0.009,0.009-0.014,0.014h0l-45.248,45.264l-45.248-45.264c-24.997-24.99-25.003-65.512-0.014-90.51
				c24.99-24.997,65.512-25.003,90.51-0.014C486.225,295.814,486.231,336.337,461.241,361.334z"/>
			<rect x="399.979" y="300.1" width="32" height="32"/>
		</g>
	</g>
</g>
<g>
</g>
<g>
</g>
<g>
</g>
<g>
</g>
<g>
</g>
<g>
</g>
<g>
</g>
<g>
</g>
<g>
</g>
<g>
</g>
<g>
</g>
<g>
</g>
<g>
</g>
<g>
</g>
<g>
</g>
</svg>
